<?xml version="1.0" standalone="no"?>
<!DOCTYPE svg PUBLIC "-//W3C//DTD SVG 20010904//EN"
 "http://www.w3.org/TR/2001/REC-SVG-20010904/DTD/svg10.dtd">
<svg version="1.0" xmlns="http://www.w3.org/2000/svg"
 width="402.000000pt" height="402.000000pt" viewBox="0 0 402.000000 402.000000"
 preserveAspectRatio="xMidYMid meet">
<metadata>
Created by potrace 1.14, written by Peter Selinger 2001-2017
</metadata>
<g transform="translate(0.000000,402.000000) scale(0.100000,-0.100000)"
fill="#000000" stroke="none">
<path d="M2109 3656 c-2 -2 -22 -6 -44 -9 -22 -3 -41 -10 -43 -16 -2 -5 -9 -8
-15 -5 -12 4 -166 -78 -177 -95 -3 -4 -15 -13 -28 -20 -12 -7 -20 -17 -16 -23
4 -6 3 -8 -3 -5 -14 9 -123 -107 -123 -130 0 -23 19 -43 39 -43 9 0 45 30 81
66 60 61 200 164 232 170 7 2 33 8 58 15 128 32 254 -5 352 -103 59 -59 73
-77 106 -133 54 -93 103 -228 128 -352 23 -113 50 -146 87 -108 17 17 15 41
-13 155 -26 107 -44 160 -53 160 -5 0 -6 4 -2 9 20 33 -173 343 -207 333 -5
-1 -7 1 -4 6 3 5 -15 24 -39 41 -25 18 -45 29 -45 26 0 -4 -7 0 -15 9 -21 21
-119 48 -191 52 -34 2 -63 2 -65 0z"/>
<path d="M769 3299 c-42 -12 -101 -64 -124 -109 -24 -46 -23 -127 2 -175 100
-193 380 -128 385 90 0 23 -2 51 -6 62 -6 18 0 22 41 33 101 27 304 18 448
-21 22 -6 47 -12 55 -14 48 -9 232 -86 337 -140 67 -35 125 -60 129 -57 4 4 4
1 0 -5 -4 -7 -3 -13 2 -13 5 0 44 -22 86 -50 42 -27 78 -50 80 -50 3 0 15 -9
28 -19 59 -50 138 -111 138 -107 0 3 13 -8 29 -22 84 -79 176 -157 183 -154 4
1 7 -2 6 -7 -2 -5 29 -42 67 -82 39 -41 90 -99 115 -129 25 -30 47 -57 51 -60
3 -3 34 -47 69 -97 48 -71 68 -93 85 -93 29 0 47 22 38 46 -23 65 -205 294
-339 429 -129 129 -145 144 -314 278 -243 193 -641 394 -855 432 -11 2 -54 11
-95 19 -104 21 -306 15 -380 -10 l-55 -19 -42 23 c-48 27 -113 35 -164 21z
m111 -83 c14 -4 36 -23 49 -42 19 -27 23 -43 18 -79 -5 -52 -27 -82 -75 -102
-34 -14 -97 -9 -108 8 -3 5 -10 6 -16 3 -7 -4 -8 -2 -4 4 4 7 3 12 -2 12 -15
0 -32 48 -32 89 0 83 79 133 170 107z"/>
<path d="M1456 3065 c-9 -13 -16 -31 -16 -38 0 -8 -7 -20 -15 -27 -8 -7 -15
-16 -15 -21 0 -4 -13 -37 -30 -72 -16 -36 -30 -68 -30 -72 0 -4 -6 -21 -14
-38 -37 -81 -126 -393 -140 -492 -3 -22 -7 -49 -9 -60 -42 -208 -52 -598 -22
-795 20 -128 40 -215 70 -306 35 -106 103 -247 137 -283 10 -11 18 -23 18 -27
0 -4 28 -34 62 -67 56 -55 62 -64 61 -100 -1 -80 61 -166 136 -187 46 -13 121
-13 121 0 0 5 6 7 13 4 20 -7 93 53 113 94 22 47 26 126 7 172 -23 56 -84 111
-128 115 -5 0 -15 4 -22 8 -18 12 -104 -1 -133 -20 -14 -8 -36 -26 -51 -39
l-25 -24 -42 42 c-108 106 -187 278 -232 501 -31 155 -35 207 -34 452 1 226 5
284 25 396 5 31 11 74 14 95 2 22 13 75 24 118 11 44 18 83 15 87 -2 4 -1 9 3
11 9 3 56 154 57 181 0 9 3 17 7 17 4 0 11 14 14 32 4 18 11 39 16 48 24 43
76 179 71 184 -3 3 0 6 6 6 14 0 48 78 43 100 -8 36 -52 40 -75 5z m318 -2287
c56 -25 79 -111 45 -167 -38 -62 -126 -78 -184 -33 -14 12 -25 22 -25 24 1 2
-3 15 -9 30 -18 47 5 114 47 141 31 19 90 22 126 5z"/>
<path d="M3306 2826 c-125 -46 -175 -201 -100 -308 19 -27 49 -52 80 -68 l51
-25 -12 -40 c-6 -22 -19 -54 -28 -71 -9 -17 -13 -34 -10 -38 4 -3 2 -6 -4 -6
-9 0 -28 -32 -32 -52 0 -5 -11 -19 -22 -32 -12 -13 -20 -26 -19 -28 1 -1 -21
-28 -49 -57 -27 -30 -47 -59 -45 -63 3 -5 0 -7 -8 -6 -7 2 -12 -3 -10 -10 1
-8 -1 -11 -6 -8 -5 3 -18 -5 -29 -17 -100 -111 -322 -265 -553 -380 -124 -63
-330 -150 -380 -162 -8 -2 -27 -8 -43 -14 -15 -6 -38 -13 -50 -16 -12 -3 -78
-18 -147 -35 -69 -16 -141 -32 -160 -35 -98 -16 -186 -26 -249 -29 -94 -5
-125 -31 -84 -71 14 -15 30 -16 102 -11 120 9 152 13 270 37 57 12 114 23 125
25 115 21 492 151 529 182 9 8 17 12 17 8 0 -4 54 21 120 54 66 34 120 65 120
69 0 4 6 8 13 8 17 0 147 84 147 95 0 5 4 7 8 4 5 -3 20 6 35 20 15 13 30 25
34 26 9 1 63 42 100 75 13 11 42 36 63 53 22 18 37 36 34 41 -3 5 -1 8 4 7 12
-4 104 93 140 147 15 22 35 49 45 59 9 11 17 25 17 32 0 7 4 14 8 16 13 5 68
127 77 168 8 42 33 83 44 75 16 -10 102 79 115 120 54 159 -102 317 -258 261z
m137 -91 c9 -4 17 -11 17 -17 0 -5 6 -6 13 -2 6 4 9 4 5 -1 -4 -4 -1 -19 6
-34 16 -33 14 -69 -7 -114 -17 -36 -33 -44 -104 -53 -37 -5 -45 -2 -78 28 -57
53 -57 139 1 183 44 33 84 36 147 10z"/>
<path d="M892 2429 c-23 -17 -42 -37 -42 -45 0 -8 -6 -13 -12 -11 -7 1 -12 -4
-10 -11 1 -8 -2 -11 -7 -8 -5 3 -38 -27 -74 -67 -73 -81 -131 -157 -120 -157
5 0 3 -4 -3 -8 -14 -9 -66 -92 -58 -92 4 0 1 -6 -5 -14 -27 -32 -58 -153 -60
-231 -5 -209 121 -375 354 -465 124 -49 210 -67 230 -50 8 7 15 23 15 36 0 28
-11 33 -115 58 -106 25 -225 87 -290 151 -127 124 -147 283 -60 472 18 39 30
75 27 79 -4 4 -2 4 4 1 11 -7 40 40 35 58 -2 5 1 7 4 3 4 -4 17 5 29 20 33 42
68 82 108 123 20 21 34 40 30 43 -3 3 1 6 9 6 17 1 83 61 98 89 8 15 7 23 -5
35 -22 22 -34 20 -82 -15z"/>
<path d="M1951 2292 c-68 -7 -131 -77 -131 -146 0 -115 101 -179 212 -135 15
6 25 15 22 20 -3 5 2 9 11 9 21 0 48 65 46 113 -1 48 -35 100 -81 123 -42 21
-37 20 -79 16z"/>
<path d="M3122 1798 c-17 -17 -15 -36 9 -125 21 -76 30 -224 18 -298 -15 -92
-97 -202 -184 -248 -95 -50 -251 -71 -390 -52 -62 9 -269 61 -295 75 -28 15
-68 12 -78 -6 -18 -32 -1 -53 57 -75 66 -25 238 -68 299 -76 58 -7 198 -7 247
0 39 6 48 7 110 22 32 8 132 61 153 82 7 7 19 16 26 20 22 13 84 101 105 149
32 73 44 156 38 262 -6 90 -34 219 -58 263 -11 22 -39 25 -57 7z"/>
</g>
</svg>
